<?xml version="1.0" encoding="UTF-8"?>
<!DOCTYPE svg PUBLIC "-//W3C//DTD SVG 1.1//EN" "http://www.w3.org/Graphics/SVG/1.1/DTD/svg11.dtd">
<svg xmlns="http://www.w3.org/2000/svg" version="1.1" width="369px" height="177px" style="shape-rendering:geometricPrecision; text-rendering:geometricPrecision; image-rendering:optimizeQuality; fill-rule:evenodd; clip-rule:evenodd" xmlns:xlink="http://www.w3.org/1999/xlink">
<g><path style="opacity:1" fill="#aba19b" d="M 156.5,13.5 C 156.167,13.5 155.833,13.5 155.5,13.5C 155.5,9.5 155.5,5.5 155.5,1.5C 145.5,1.5 135.5,1.5 125.5,1.5C 125.5,5.5 125.5,9.5 125.5,13.5C 125.167,13.5 124.833,13.5 124.5,13.5C 124.5,9.16667 124.5,4.83333 124.5,0.5C 135.167,0.5 145.833,0.5 156.5,0.5C 156.5,4.83333 156.5,9.16667 156.5,13.5 Z"/></g>
<g><path style="opacity:1" fill="#5c5450" d="M 155.5,13.5 C 155.167,13.5 154.833,13.5 154.5,13.5C 154.5,9.83333 154.5,6.16667 154.5,2.5C 145.167,2.5 135.833,2.5 126.5,2.5C 126.5,6.16667 126.5,9.83333 126.5,13.5C 126.167,13.5 125.833,13.5 125.5,13.5C 125.5,9.5 125.5,5.5 125.5,1.5C 135.5,1.5 145.5,1.5 155.5,1.5C 155.5,5.5 155.5,9.5 155.5,13.5 Z"/></g>
<g><path style="opacity:1" fill="#080704" d="M 154.5,13.5 C 145.167,13.5 135.833,13.5 126.5,13.5C 126.5,9.83333 126.5,6.16667 126.5,2.5C 135.833,2.5 145.167,2.5 154.5,2.5C 154.5,6.16667 154.5,9.83333 154.5,13.5 Z"/></g>
<g><path style="opacity:1" fill="#474340" d="M 215.5,2.5 C 215.833,2.5 216.167,2.5 216.5,2.5C 216.5,5.83333 216.5,9.16667 216.5,12.5C 226.167,12.5 235.833,12.5 245.5,12.5C 245.5,9.16667 245.5,5.83333 245.5,2.5C 246.482,5.96192 246.815,9.62859 246.5,13.5C 239.5,13.5 232.5,13.5 225.5,13.5C 222.167,13.5 218.833,13.5 215.5,13.5C 215.5,10.5 215.5,7.5 215.5,4.5C 215.5,3.83333 215.5,3.16667 215.5,2.5 Z"/></g>
<g><path style="opacity:1" fill="#020200" d="M 216.5,2.5 C 226.167,2.5 235.833,2.5 245.5,2.5C 245.5,5.83333 245.5,9.16667 245.5,12.5C 235.833,12.5 226.167,12.5 216.5,12.5C 216.5,9.16667 216.5,5.83333 216.5,2.5 Z"/></g>
<g><path style="opacity:1" fill="#c1b3ac" d="M 247.5,5.5 C 248.468,7.60737 248.802,9.9407 248.5,12.5C 252.167,12.5 255.833,12.5 259.5,12.5C 259.5,16.5 259.5,20.5 259.5,24.5C 266.5,24.5 273.5,24.5 280.5,24.5C 280.5,28.8333 280.5,33.1667 280.5,37.5C 284.167,37.5 287.833,37.5 291.5,37.5C 291.5,42.1667 291.5,46.8333 291.5,51.5C 291.167,51.5 290.833,51.5 290.5,51.5C 290.818,46.9677 290.485,42.6344 289.5,38.5C 286.5,38.5 283.5,38.5 280.5,38.5C 280.167,38.5 279.833,38.5 279.5,38.5C 279.5,34.1667 279.5,29.8333 279.5,25.5C 276.167,25.5 272.833,25.5 269.5,25.5C 266.5,25.5 263.5,25.5 260.5,25.5C 258.577,21.9707 257.911,17.9707 258.5,13.5C 254.833,13.5 251.167,13.5 247.5,13.5C 247.5,10.8333 247.5,8.16667 247.5,5.5 Z"/></g>
<g><path style="opacity:1" fill="#8a7d76" d="M 215.5,2.5 C 225.987,1.50558 236.654,1.17225 247.5,1.5C 247.5,2.83333 247.5,4.16667 247.5,5.5C 247.5,8.16667 247.5,10.8333 247.5,13.5C 251.167,13.5 254.833,13.5 258.5,13.5C 257.911,17.9707 258.577,21.9707 260.5,25.5C 260.5,25.8333 260.5,26.1667 260.5,26.5C 259.549,27.9187 259.216,29.5853 259.5,31.5C 258.549,30.0813 258.216,28.4147 258.5,26.5C 254.5,26.5 250.5,26.5 246.5,26.5C 246.5,22.5 246.5,18.5 246.5,14.5C 239.5,14.5 232.5,14.5 225.5,14.5C 225.5,14.1667 225.5,13.8333 225.5,13.5C 232.5,13.5 239.5,13.5 246.5,13.5C 246.815,9.62859 246.482,5.96192 245.5,2.5C 235.833,2.5 226.167,2.5 216.5,2.5C 216.167,2.5 215.833,2.5 215.5,2.5 Z"/></g>
<g><path style="opacity:1" fill="#d9a88b" d="M 145.5,36.5 C 145.5,39.8333 145.5,43.1667 145.5,46.5C 142.167,46.5 138.833,46.5 135.5,46.5C 135.5,51.8333 135.5,57.1667 135.5,62.5C 131.833,62.5 128.167,62.5 124.5,62.5C 124.5,66.1667 124.5,69.8333 124.5,73.5C 117.167,73.5 109.833,73.5 102.5,73.5C 102.5,69.5 102.5,65.5 102.5,61.5C 99.1667,61.5 95.8333,61.5 92.5,61.5C 92.8235,54.9779 92.4902,48.6446 91.5,42.5C 91.5,40.8333 91.5,39.1667 91.5,37.5C 91.5,36.8333 91.1667,36.5 90.5,36.5C 90.423,32.7852 90.7564,29.1185 91.5,25.5C 92.5,25.5 93.5,25.5 94.5,25.5C 96.8333,25.5 99.1667,25.5 101.5,25.5C 101.5,30.1667 101.5,34.8333 101.5,39.5C 105.5,39.5 109.5,39.5 113.5,39.5C 113.5,35.1667 113.5,30.8333 113.5,26.5C 117.5,26.5 121.5,26.5 125.5,26.5C 125.5,24.5 125.5,22.5 125.5,20.5C 126.461,18.7354 126.795,16.7354 126.5,14.5C 132.833,14.5 139.167,14.5 145.5,14.5C 145.5,21.8333 145.5,29.1667 145.5,36.5 Z"/></g>
<g><path style="opacity:1" fill="#a57b89" d="M 154.5,37.5 C 154.5,40.5 154.5,43.5 154.5,46.5C 151.5,46.5 148.5,46.5 145.5,46.5C 145.5,43.1667 145.5,39.8333 145.5,36.5C 146.492,29.3524 146.825,22.0191 146.5,14.5C 149.167,14.5 151.833,14.5 154.5,14.5C 154.5,22.1667 154.5,29.8333 154.5,37.5 Z"/></g>
<g><path style="opacity:1" fill="#a38c8a" d="M 125.5,13.5 C 125.833,13.5 126.167,13.5 126.5,13.5C 135.833,13.5 145.167,13.5 154.5,13.5C 154.833,13.5 155.167,13.5 155.5,13.5C 155.833,13.5 156.167,13.5 156.5,13.5C 160.5,13.5 164.5,13.5 168.5,13.5C 168.823,19.69 168.49,25.69 167.5,31.5C 167.5,25.8333 167.5,20.1667 167.5,14.5C 163.5,14.5 159.5,14.5 155.5,14.5C 155.175,22.0191 155.508,29.3524 156.5,36.5C 159.833,36.5 163.167,36.5 166.5,36.5C 166.5,36.8333 166.5,37.1667 166.5,37.5C 162.833,37.5 159.167,37.5 155.5,37.5C 155.167,37.5 154.833,37.5 154.5,37.5C 154.5,29.8333 154.5,22.1667 154.5,14.5C 151.833,14.5 149.167,14.5 146.5,14.5C 146.825,22.0191 146.492,29.3524 145.5,36.5C 145.5,29.1667 145.5,21.8333 145.5,14.5C 139.167,14.5 132.833,14.5 126.5,14.5C 126.795,16.7354 126.461,18.7354 125.5,20.5C 125.5,18.1667 125.5,15.8333 125.5,13.5 Z"/></g>
<g><path style="opacity:1" fill="#6d6158" d="M 167.5,31.5 C 167.5,32.1667 167.5,32.8333 167.5,33.5C 167.737,34.791 167.404,35.791 166.5,36.5C 166.5,33.1667 166.5,29.8333 166.5,26.5C 163.167,26.5 159.833,26.5 156.5,26.5C 156.5,29.8333 156.5,33.1667 156.5,36.5C 155.508,29.3524 155.175,22.0191 155.5,14.5C 159.5,14.5 163.5,14.5 167.5,14.5C 167.5,20.1667 167.5,25.8333 167.5,31.5 Z"/></g>
<g><path style="opacity:1" fill="#655850" d="M 214.5,14.5 C 215.78,21.9623 215.78,29.2956 214.5,36.5C 214.5,33.1667 214.5,29.8333 214.5,26.5C 211.167,26.5 207.833,26.5 204.5,26.5C 204.167,26.5 203.833,26.5 203.5,26.5C 203.5,22.5 203.5,18.5 203.5,14.5C 207.167,14.5 210.833,14.5 214.5,14.5 Z"/></g>
<g><path style="opacity:1" fill="#d8a88b" d="M 225.5,14.5 C 232.5,14.5 239.5,14.5 246.5,14.5C 246.5,18.5 246.5,22.5 246.5,26.5C 250.5,26.5 254.5,26.5 258.5,26.5C 258.216,28.4147 258.549,30.0813 259.5,31.5C 259.5,33.8333 259.5,36.1667 259.5,38.5C 262.833,38.5 266.167,38.5 269.5,38.5C 269.5,34.1667 269.5,29.8333 269.5,25.5C 272.833,25.5 276.167,25.5 279.5,25.5C 279.5,29.8333 279.5,34.1667 279.5,38.5C 278.687,46.1377 278.354,53.8044 278.5,61.5C 275.119,61.4595 271.786,61.7929 268.5,62.5C 268.5,63.5 268.5,64.5 268.5,65.5C 267.527,67.9479 267.194,70.6146 267.5,73.5C 260.5,73.5 253.5,73.5 246.5,73.5C 246.5,69.8333 246.5,66.1667 246.5,62.5C 242.833,62.5 239.167,62.5 235.5,62.5C 235.5,57.1667 235.5,51.8333 235.5,46.5C 232.167,46.5 228.833,46.5 225.5,46.5C 225.5,35.8333 225.5,25.1667 225.5,14.5 Z"/></g>
<g><path style="opacity:1" fill="#0c0804" d="M 247.5,14.5 C 250.833,14.5 254.167,14.5 257.5,14.5C 257.5,18.1667 257.5,21.8333 257.5,25.5C 254.167,25.5 250.833,25.5 247.5,25.5C 247.5,21.8333 247.5,18.1667 247.5,14.5 Z"/></g>
<g><path style="opacity:1" fill="#c2b2a9" d="M 111.5,17.5 C 111.5,20.1667 111.5,22.8333 111.5,25.5C 108.167,25.5 104.833,25.5 101.5,25.5C 99.1667,25.5 96.8333,25.5 94.5,25.5C 99.6405,24.5119 104.974,24.1786 110.5,24.5C 110.198,21.9407 110.532,19.6074 111.5,17.5 Z"/></g>
<g><path style="opacity:1" fill="#020200" d="M 166.5,36.5 C 163.167,36.5 159.833,36.5 156.5,36.5C 156.5,33.1667 156.5,29.8333 156.5,26.5C 159.833,26.5 163.167,26.5 166.5,26.5C 166.5,29.8333 166.5,33.1667 166.5,36.5 Z"/></g>
<g><path style="opacity:1" fill="#000000" d="M 204.5,26.5 C 207.833,26.5 211.167,26.5 214.5,26.5C 214.5,29.8333 214.5,33.1667 214.5,36.5C 211.167,36.5 207.833,36.5 204.5,36.5C 204.5,33.1667 204.5,29.8333 204.5,26.5 Z"/></g>
<g><path style="opacity:1" fill="#aa8f93" d="M 215.5,4.5 C 215.5,7.5 215.5,10.5 215.5,13.5C 218.833,13.5 222.167,13.5 225.5,13.5C 225.5,13.8333 225.5,14.1667 225.5,14.5C 225.5,25.1667 225.5,35.8333 225.5,46.5C 224.833,46.5 224.5,46.8333 224.5,47.5C 224.167,47.5 223.833,47.5 223.5,47.5C 220.833,47.5 218.167,47.5 215.5,47.5C 215.5,44.5 215.5,41.5 215.5,38.5C 211.298,38.8168 207.298,38.4834 203.5,37.5C 207.371,37.815 211.038,37.4816 214.5,36.5C 215.78,29.2956 215.78,21.9623 214.5,14.5C 214.5,14.1667 214.5,13.8333 214.5,13.5C 214.19,10.2869 214.523,7.2869 215.5,4.5 Z"/></g>
<g><path style="opacity:1" fill="#a77b89" d="M 217.5,15.5 C 219.833,15.5 222.167,15.5 224.5,15.5C 224.5,25.5 224.5,35.5 224.5,45.5C 222.5,45.5 220.5,45.5 218.5,45.5C 217.704,35.521 217.371,25.521 217.5,15.5 Z"/></g>
<g><path style="opacity:1" fill="#9a9390" d="M 214.5,13.5 C 214.5,13.8333 214.5,14.1667 214.5,14.5C 210.833,14.5 207.167,14.5 203.5,14.5C 203.5,18.5 203.5,22.5 203.5,26.5C 203.5,30.1667 203.5,33.8333 203.5,37.5C 191.167,37.5 178.833,37.5 166.5,37.5C 166.5,37.1667 166.5,36.8333 166.5,36.5C 167.404,35.791 167.737,34.791 167.5,33.5C 179.167,33.5 190.833,33.5 202.5,33.5C 202.5,26.8333 202.5,20.1667 202.5,13.5C 206.5,13.5 210.5,13.5 214.5,13.5 Z"/></g>
<g><path style="opacity:1" fill="#3e3c3f" d="M 168.5,34.5 C 179.853,34.1678 191.186,34.5012 202.5,35.5C 196.833,35.8333 191.167,36.1667 185.5,36.5C 179.458,36.4955 173.792,35.8288 168.5,34.5 Z"/></g>
<g><path style="opacity:1" fill="#342d29" d="M 203.5,26.5 C 203.833,26.5 204.167,26.5 204.5,26.5C 204.5,29.8333 204.5,33.1667 204.5,36.5C 207.833,36.5 211.167,36.5 214.5,36.5C 211.038,37.4816 207.371,37.815 203.5,37.5C 203.5,33.8333 203.5,30.1667 203.5,26.5 Z"/></g>
<g><path style="opacity:1" fill="#dfd6d3" d="M 155.5,37.5 C 159.167,37.5 162.833,37.5 166.5,37.5C 178.833,37.5 191.167,37.5 203.5,37.5C 207.298,38.4834 211.298,38.8168 215.5,38.5C 215.5,41.5 215.5,44.5 215.5,47.5C 218.167,47.5 220.833,47.5 223.5,47.5C 223.5,60.8333 223.5,74.1667 223.5,87.5C 226.5,87.5 229.5,87.5 232.5,87.5C 232.5,96.8333 232.5,106.167 232.5,115.5C 236.833,115.5 241.167,115.5 245.5,115.5C 245.5,127.5 245.5,139.5 245.5,151.5C 241.5,151.5 237.5,151.5 233.5,151.5C 233.5,154.5 233.5,157.5 233.5,160.5C 201.167,160.5 168.833,160.5 136.5,160.5C 136.802,157.941 136.468,155.607 135.5,153.5C 134.432,152.566 133.099,152.232 131.5,152.5C 130.081,151.549 128.415,151.216 126.5,151.5C 126.5,139.5 126.5,127.5 126.5,115.5C 130.179,115.276 133.846,114.942 137.5,114.5C 137.5,104.833 137.5,95.1667 137.5,85.5C 138.167,85.5 138.833,85.5 139.5,85.5C 141.833,85.5 144.167,85.5 146.5,85.5C 146.5,72.8333 146.5,60.1667 146.5,47.5C 149.5,47.5 152.5,47.5 155.5,47.5C 155.5,44.1667 155.5,40.8333 155.5,37.5 Z"/></g>
<g><path style="opacity:1" fill="#6d5f59" d="M 260.5,25.5 C 263.5,25.5 266.5,25.5 269.5,25.5C 269.5,29.8333 269.5,34.1667 269.5,38.5C 266.167,38.5 262.833,38.5 259.5,38.5C 259.5,36.1667 259.5,33.8333 259.5,31.5C 259.216,29.5853 259.549,27.9187 260.5,26.5C 260.5,26.1667 260.5,25.8333 260.5,25.5 Z"/></g>
<g><path style="opacity:1" fill="#040101" d="M 260.5,26.5 C 263.167,26.5 265.833,26.5 268.5,26.5C 268.5,30.1667 268.5,33.8333 268.5,37.5C 265.833,37.5 263.167,37.5 260.5,37.5C 260.5,33.8333 260.5,30.1667 260.5,26.5 Z"/></g>
<g><path style="opacity:1" fill="#020200" d="M 100.5,73.5 C 93.8333,73.5 87.1667,73.5 80.5,73.5C 80.5,71.5 80.5,69.5 80.5,67.5C 80.5,57.8333 80.5,48.1667 80.5,38.5C 83.8333,38.5 87.1667,38.5 90.5,38.5C 90.5,46.8333 90.5,55.1667 90.5,63.5C 93.8333,63.5 97.1667,63.5 100.5,63.5C 100.5,66.8333 100.5,70.1667 100.5,73.5 Z"/></g>
<g><path style="opacity:1" fill="#71645d" d="M 124.5,13.5 C 124.833,13.5 125.167,13.5 125.5,13.5C 125.5,15.8333 125.5,18.1667 125.5,20.5C 125.5,22.5 125.5,24.5 125.5,26.5C 121.5,26.5 117.5,26.5 113.5,26.5C 113.5,30.8333 113.5,35.1667 113.5,39.5C 109.5,39.5 105.5,39.5 101.5,39.5C 101.5,34.8333 101.5,30.1667 101.5,25.5C 104.833,25.5 108.167,25.5 111.5,25.5C 111.5,22.8333 111.5,20.1667 111.5,17.5C 111.5,16.1667 111.5,14.8333 111.5,13.5C 115.833,13.5 120.167,13.5 124.5,13.5 Z"/></g>
<g><path style="opacity:1" fill="#050302" d="M 102.5,26.5 C 105.833,26.5 109.167,26.5 112.5,26.5C 112.5,30.5 112.5,34.5 112.5,38.5C 109.167,38.5 105.833,38.5 102.5,38.5C 102.5,34.5 102.5,30.5 102.5,26.5 Z"/></g>
<g><path style="opacity:1" fill="#050302" d="M 112.5,14.5 C 116.5,14.5 120.5,14.5 124.5,14.5C 124.5,18.1667 124.5,21.8333 124.5,25.5C 120.5,25.5 116.5,25.5 112.5,25.5C 112.5,21.8333 112.5,18.1667 112.5,14.5 Z"/></g>
<g><path style="opacity:1" fill="#020200" d="M 280.5,38.5 C 283.5,38.5 286.5,38.5 289.5,38.5C 289.5,50.1667 289.5,61.8333 289.5,73.5C 282.833,73.5 276.167,73.5 269.5,73.5C 269.5,70.1667 269.5,66.8333 269.5,63.5C 273.167,63.5 276.833,63.5 280.5,63.5C 280.5,55.1667 280.5,46.8333 280.5,38.5 Z"/></g>
<g><path style="opacity:1" fill="#9f928b" d="M 90.5,36.5 C 91.1667,36.5 91.5,36.8333 91.5,37.5C 87.5,37.5 83.5,37.5 79.5,37.5C 79.5,46.8333 79.5,56.1667 79.5,65.5C 78.5062,56.0144 78.1729,46.3478 78.5,36.5C 82.5,36.5 86.5,36.5 90.5,36.5 Z"/></g>
<g><path style="opacity:1" fill="#554e4c" d="M 289.5,38.5 C 290.485,42.6344 290.818,46.9677 290.5,51.5C 290.5,59.1667 290.5,66.8333 290.5,74.5C 283.646,74.176 276.979,74.5093 270.5,75.5C 270.167,75.5 269.833,75.5 269.5,75.5C 269.5,75.1667 269.5,74.8333 269.5,74.5C 269.5,74.1667 269.5,73.8333 269.5,73.5C 276.167,73.5 282.833,73.5 289.5,73.5C 289.5,61.8333 289.5,50.1667 289.5,38.5 Z"/></g>
<g><path style="opacity:1" fill="#a67c89" d="M 145.5,46.5 C 145.5,59.1667 145.5,71.8333 145.5,84.5C 143.265,84.2053 141.265,84.5386 139.5,85.5C 138.833,85.5 138.167,85.5 137.5,85.5C 133.5,85.5 129.5,85.5 125.5,85.5C 121.167,85.5 116.833,85.5 112.5,85.5C 112.813,81.9581 112.479,78.6248 111.5,75.5C 111.5,75.1667 111.5,74.8333 111.5,74.5C 115.833,74.5 120.167,74.5 124.5,74.5C 128.167,74.5 131.833,74.5 135.5,74.5C 135.5,70.5 135.5,66.5 135.5,62.5C 135.5,57.1667 135.5,51.8333 135.5,46.5C 138.833,46.5 142.167,46.5 145.5,46.5 Z"/></g>
<g><path style="opacity:1" fill="#c2a8ae" d="M 154.5,37.5 C 154.833,37.5 155.167,37.5 155.5,37.5C 155.5,40.8333 155.5,44.1667 155.5,47.5C 152.5,47.5 149.5,47.5 146.5,47.5C 146.5,60.1667 146.5,72.8333 146.5,85.5C 144.167,85.5 141.833,85.5 139.5,85.5C 141.265,84.5386 143.265,84.2053 145.5,84.5C 145.5,71.8333 145.5,59.1667 145.5,46.5C 148.5,46.5 151.5,46.5 154.5,46.5C 154.5,43.5 154.5,40.5 154.5,37.5 Z"/></g>
<g><path style="opacity:1" fill="#a57b88" d="M 225.5,46.5 C 225.333,58.5046 225.5,70.5046 226,82.5C 226.168,71.152 226.668,59.8187 227.5,48.5C 229.747,47.6258 232.08,47.2924 234.5,47.5C 234.5,56.8333 234.5,66.1667 234.5,75.5C 242.167,75.5 249.833,75.5 257.5,75.5C 256.908,78.1272 256.575,80.7938 256.5,83.5C 246.07,85.2692 235.404,86.2692 224.5,86.5C 224.5,73.5 224.5,60.5 224.5,47.5C 224.5,46.8333 224.833,46.5 225.5,46.5 Z"/></g>
<g><path style="opacity:1" fill="#a68b81" d="M 91.5,42.5 C 92.4902,48.6446 92.8235,54.9779 92.5,61.5C 95.8333,61.5 99.1667,61.5 102.5,61.5C 102.5,65.5 102.5,69.5 102.5,73.5C 109.833,73.5 117.167,73.5 124.5,73.5C 124.5,73.8333 124.5,74.1667 124.5,74.5C 120.167,74.5 115.833,74.5 111.5,74.5C 108.287,74.19 105.287,74.5233 102.5,75.5C 102.167,75.5 101.833,75.5 101.5,75.5C 101.5,75.1667 101.5,74.8333 101.5,74.5C 101.5,74.1667 101.5,73.8333 101.5,73.5C 101.5,69.8333 101.5,66.1667 101.5,62.5C 98.1667,62.5 94.8333,62.5 91.5,62.5C 91.5,55.8333 91.5,49.1667 91.5,42.5 Z"/></g>
<g><path style="opacity:1" fill="#7f6b61" d="M 279.5,38.5 C 279.833,38.5 280.167,38.5 280.5,38.5C 280.5,46.8333 280.5,55.1667 280.5,63.5C 276.833,63.5 273.167,63.5 269.5,63.5C 269.5,66.8333 269.5,70.1667 269.5,73.5C 269.5,73.8333 269.5,74.1667 269.5,74.5C 269.167,74.5 268.833,74.5 268.5,74.5C 268.5,71.5 268.5,68.5 268.5,65.5C 268.5,64.5 268.5,63.5 268.5,62.5C 271.786,61.7929 275.119,61.4595 278.5,61.5C 278.354,53.8044 278.687,46.1377 279.5,38.5 Z"/></g>
<g><path style="opacity:1" fill="#504845" d="M 91.5,37.5 C 91.5,39.1667 91.5,40.8333 91.5,42.5C 91.5,49.1667 91.5,55.8333 91.5,62.5C 94.8333,62.5 98.1667,62.5 101.5,62.5C 101.5,66.1667 101.5,69.8333 101.5,73.5C 101.167,73.5 100.833,73.5 100.5,73.5C 100.5,70.1667 100.5,66.8333 100.5,63.5C 97.1667,63.5 93.8333,63.5 90.5,63.5C 90.5,55.1667 90.5,46.8333 90.5,38.5C 87.1667,38.5 83.8333,38.5 80.5,38.5C 80.5,48.1667 80.5,57.8333 80.5,67.5C 80.1667,67.5 79.8333,67.5 79.5,67.5C 79.5,66.8333 79.5,66.1667 79.5,65.5C 79.5,56.1667 79.5,46.8333 79.5,37.5C 83.5,37.5 87.5,37.5 91.5,37.5 Z"/></g>
<g><path style="opacity:1" fill="#e2d1cc" d="M 135.5,62.5 C 135.5,66.5 135.5,70.5 135.5,74.5C 131.833,74.5 128.167,74.5 124.5,74.5C 124.5,74.1667 124.5,73.8333 124.5,73.5C 124.5,69.8333 124.5,66.1667 124.5,62.5C 128.167,62.5 131.833,62.5 135.5,62.5 Z"/></g>
<g><path style="opacity:1" fill="#e0d3cc" d="M 235.5,62.5 C 239.167,62.5 242.833,62.5 246.5,62.5C 246.5,66.1667 246.5,69.8333 246.5,73.5C 243.038,74.4816 239.371,74.815 235.5,74.5C 235.5,70.5 235.5,66.5 235.5,62.5 Z"/></g>
<g><path style="opacity:1" fill="#6c6564" d="M 79.5,67.5 C 79.8333,67.5 80.1667,67.5 80.5,67.5C 80.5,69.5 80.5,71.5 80.5,73.5C 87.1667,73.5 93.8333,73.5 100.5,73.5C 100.833,73.5 101.167,73.5 101.5,73.5C 101.5,73.8333 101.5,74.1667 101.5,74.5C 94.1667,74.5 86.8333,74.5 79.5,74.5C 79.5,72.1667 79.5,69.8333 79.5,67.5 Z"/></g>
<g><path style="opacity:1" fill="#b89a98" d="M 225.5,46.5 C 228.833,46.5 232.167,46.5 235.5,46.5C 235.5,51.8333 235.5,57.1667 235.5,62.5C 235.5,66.5 235.5,70.5 235.5,74.5C 239.371,74.815 243.038,74.4816 246.5,73.5C 253.5,73.5 260.5,73.5 267.5,73.5C 267.194,70.6146 267.527,67.9479 268.5,65.5C 268.5,68.5 268.5,71.5 268.5,74.5C 265.545,75.1587 262.545,75.4921 259.5,75.5C 258.833,75.5 258.167,75.5 257.5,75.5C 249.833,75.5 242.167,75.5 234.5,75.5C 234.5,66.1667 234.5,56.8333 234.5,47.5C 232.08,47.2924 229.747,47.6258 227.5,48.5C 226.668,59.8187 226.168,71.152 226,82.5C 225.5,70.5046 225.333,58.5046 225.5,46.5 Z"/></g>
<g><path style="opacity:1" fill="#322b28" d="M 268.5,74.5 C 268.833,74.5 269.167,74.5 269.5,74.5C 269.5,74.8333 269.5,75.1667 269.5,75.5C 269.5,78.8333 269.5,82.1667 269.5,85.5C 266.167,85.5 262.833,85.5 259.5,85.5C 259.5,82.1667 259.5,78.8333 259.5,75.5C 262.545,75.4921 265.545,75.1587 268.5,74.5 Z"/></g>
<g><path style="opacity:1" fill="#7d7471" d="M 290.5,51.5 C 290.833,51.5 291.167,51.5 291.5,51.5C 291.5,59.5 291.5,67.5 291.5,75.5C 284.5,75.5 277.5,75.5 270.5,75.5C 276.979,74.5093 283.646,74.176 290.5,74.5C 290.5,66.8333 290.5,59.1667 290.5,51.5 Z"/></g>
<g><path style="opacity:0.133" fill="#d1c6c4" d="M 270.5,75.5 C 277.5,75.5 284.5,75.5 291.5,75.5C 285.021,76.4907 278.354,76.824 271.5,76.5C 271.768,78.099 271.434,79.4324 270.5,80.5C 270.5,78.8333 270.5,77.1667 270.5,75.5 Z"/></g>
<g><path style="opacity:1" fill="#8f7b7e" d="M 257.5,75.5 C 258.167,75.5 258.833,75.5 259.5,75.5C 259.5,78.8333 259.5,82.1667 259.5,85.5C 262.833,85.5 266.167,85.5 269.5,85.5C 269.5,82.1667 269.5,78.8333 269.5,75.5C 269.833,75.5 270.167,75.5 270.5,75.5C 270.5,77.1667 270.5,78.8333 270.5,80.5C 270.5,82.5 270.5,84.5 270.5,86.5C 268.167,86.5 265.833,86.5 263.5,86.5C 261.167,86.5 258.833,86.5 256.5,86.5C 256.5,85.5 256.5,84.5 256.5,83.5C 256.575,80.7938 256.908,78.1272 257.5,75.5 Z"/></g>
<g><path style="opacity:1" fill="#625556" d="M 111.5,74.5 C 111.5,74.8333 111.5,75.1667 111.5,75.5C 112.479,78.6248 112.813,81.9581 112.5,85.5C 109.167,85.5 105.833,85.5 102.5,85.5C 102.5,82.1667 102.5,78.8333 102.5,75.5C 105.287,74.5233 108.287,74.19 111.5,74.5 Z"/></g>
<g><path style="opacity:1" fill="#050100" d="M 111.5,75.5 C 111.5,78.5 111.5,81.5 111.5,84.5C 108.833,84.5 106.167,84.5 103.5,84.5C 103.5,81.5 103.5,78.5 103.5,75.5C 106.167,75.5 108.833,75.5 111.5,75.5 Z"/></g>
<g><path style="opacity:1" fill="#a29595" d="M 101.5,75.5 C 101.833,75.5 102.167,75.5 102.5,75.5C 102.5,78.8333 102.5,82.1667 102.5,85.5C 105.833,85.5 109.167,85.5 112.5,85.5C 116.833,85.5 121.167,85.5 125.5,85.5C 125.827,95.015 125.494,104.348 124.5,113.5C 124.5,104.5 124.5,95.5 124.5,86.5C 116.833,86.5 109.167,86.5 101.5,86.5C 101.5,82.8333 101.5,79.1667 101.5,75.5 Z"/></g>
<g><path style="opacity:1" fill="#9e9694" d="M 155.5,86.5 C 155.5,95.8333 155.5,105.167 155.5,114.5C 159.371,114.185 163.038,114.518 166.5,115.5C 162.5,115.5 158.5,115.5 154.5,115.5C 154.173,105.652 154.506,95.9856 155.5,86.5 Z"/></g>
<g><path style="opacity:1" fill="#77716f" d="M 167.5,86.5 C 167.5,86.8333 167.5,87.1667 167.5,87.5C 163.833,87.5 160.167,87.5 156.5,87.5C 156.5,96.1667 156.5,104.833 156.5,113.5C 160.167,113.5 163.833,113.5 167.5,113.5C 167.5,114.167 167.833,114.5 168.5,114.5C 168.5,114.833 168.5,115.167 168.5,115.5C 168.5,118.833 168.5,122.167 168.5,125.5C 171.385,125.194 174.052,125.527 176.5,126.5C 173.5,126.5 170.5,126.5 167.5,126.5C 166.886,122.865 166.552,119.198 166.5,115.5C 163.038,114.518 159.371,114.185 155.5,114.5C 155.5,105.167 155.5,95.8333 155.5,86.5C 159.5,85.1667 163.5,85.1667 167.5,86.5 Z"/></g>
<g><path style="opacity:1" fill="#918987" d="M 206.5,86.5 C 209.625,85.5206 212.958,85.1872 216.5,85.5C 216.5,95.5 216.5,105.5 216.5,115.5C 212.167,115.5 207.833,115.5 203.5,115.5C 203.5,115.167 203.5,114.833 203.5,114.5C 207.5,114.5 211.5,114.5 215.5,114.5C 215.5,105.167 215.5,95.8333 215.5,86.5C 212.5,86.5 209.5,86.5 206.5,86.5 Z"/></g>
<g><path style="opacity:1" fill="#292824" d="M 167.5,87.5 C 167.5,96.1667 167.5,104.833 167.5,113.5C 163.833,113.5 160.167,113.5 156.5,113.5C 156.5,104.833 156.5,96.1667 156.5,87.5C 160.167,87.5 163.833,87.5 167.5,87.5 Z"/></g>
<g><path style="opacity:1" fill="#696462" d="M 206.5,86.5 C 209.5,86.5 212.5,86.5 215.5,86.5C 215.5,95.8333 215.5,105.167 215.5,114.5C 211.5,114.5 207.5,114.5 203.5,114.5C 203.167,114.5 202.833,114.5 202.5,114.5C 202.5,114.167 202.5,113.833 202.5,113.5C 202.174,104.651 202.507,95.9839 203.5,87.5C 204.209,86.596 205.209,86.2627 206.5,86.5 Z"/></g>
<g><path style="opacity:1" fill="#030401" d="M 203.5,87.5 C 207.167,87.5 210.833,87.5 214.5,87.5C 214.5,96.1667 214.5,104.833 214.5,113.5C 210.833,113.5 207.167,113.5 203.5,113.5C 203.5,104.833 203.5,96.1667 203.5,87.5 Z"/></g>
<g><path style="opacity:1" fill="#bdadae" d="M 223.5,47.5 C 223.833,47.5 224.167,47.5 224.5,47.5C 224.5,60.5 224.5,73.5 224.5,86.5C 235.404,86.2692 246.07,85.2692 256.5,83.5C 256.5,84.5 256.5,85.5 256.5,86.5C 258.833,86.5 261.167,86.5 263.5,86.5C 258.36,87.4881 253.026,87.8214 247.5,87.5C 247.167,87.5 246.833,87.5 246.5,87.5C 242.366,86.5151 238.032,86.1818 233.5,86.5C 233.5,95.8333 233.5,105.167 233.5,114.5C 237.833,114.5 242.167,114.5 246.5,114.5C 246.5,126.833 246.5,139.167 246.5,151.5C 246.167,151.5 245.833,151.5 245.5,151.5C 245.5,139.5 245.5,127.5 245.5,115.5C 241.167,115.5 236.833,115.5 232.5,115.5C 232.5,106.167 232.5,96.8333 232.5,87.5C 229.5,87.5 226.5,87.5 223.5,87.5C 223.5,74.1667 223.5,60.8333 223.5,47.5 Z"/></g>
<g><path style="opacity:1" fill="#a29c9a" d="M 167.5,86.5 C 168.493,95.3178 168.827,104.318 168.5,113.5C 179.833,113.5 191.167,113.5 202.5,113.5C 202.5,113.833 202.5,114.167 202.5,114.5C 191.167,114.5 179.833,114.5 168.5,114.5C 167.833,114.5 167.5,114.167 167.5,113.5C 167.5,104.833 167.5,96.1667 167.5,87.5C 167.5,87.1667 167.5,86.8333 167.5,86.5 Z"/></g>
<g><path style="opacity:1" fill="#7f7776" d="M 246.5,87.5 C 246.833,87.5 247.167,87.5 247.5,87.5C 247.5,96.1667 247.5,104.833 247.5,113.5C 250.385,113.194 253.052,113.527 255.5,114.5C 252.833,114.5 250.167,114.5 247.5,114.5C 247.5,126.833 247.5,139.167 247.5,151.5C 247.167,151.5 246.833,151.5 246.5,151.5C 246.5,139.167 246.5,126.833 246.5,114.5C 242.167,114.5 237.833,114.5 233.5,114.5C 233.5,105.167 233.5,95.8333 233.5,86.5C 238.032,86.1818 242.366,86.5151 246.5,87.5 Z"/></g>
<g><path style="opacity:1" fill="#0e0c0a" d="M 246.5,87.5 C 246.5,96.1667 246.5,104.833 246.5,113.5C 242.5,113.5 238.5,113.5 234.5,113.5C 234.5,104.833 234.5,96.1667 234.5,87.5C 238.5,87.5 242.5,87.5 246.5,87.5 Z"/></g>
<g><path style="opacity:1" fill="#999290" d="M 124.5,113.5 C 124.5,113.833 124.5,114.167 124.5,114.5C 120.833,114.5 117.167,114.5 113.5,114.5C 113.171,127.011 113.505,139.345 114.5,151.5C 117.833,151.5 121.167,151.5 124.5,151.5C 122.052,152.473 119.385,152.806 116.5,152.5C 115.167,152.5 113.833,152.5 112.5,152.5C 112.5,139.5 112.5,126.5 112.5,113.5C 116.5,113.5 120.5,113.5 124.5,113.5 Z"/></g>
<g><path style="opacity:1" fill="#7a7473" d="M 125.5,85.5 C 129.5,85.5 133.5,85.5 137.5,85.5C 137.5,95.1667 137.5,104.833 137.5,114.5C 133.846,114.942 130.179,115.276 126.5,115.5C 125.833,127.5 125.167,139.5 124.5,151.5C 124.5,139.5 124.5,127.5 124.5,115.5C 124.5,115.167 124.5,114.833 124.5,114.5C 124.5,114.167 124.5,113.833 124.5,113.5C 125.494,104.348 125.827,95.015 125.5,85.5 Z"/></g>
<g><path style="opacity:1" fill="#514b4a" d="M 126.5,87.5 C 129.625,86.5206 132.958,86.1872 136.5,86.5C 136.827,95.6822 136.493,104.682 135.5,113.5C 135.5,104.833 135.5,96.1667 135.5,87.5C 132.5,87.5 129.5,87.5 126.5,87.5 Z"/></g>
<g><path style="opacity:1" fill="#010100" d="M 126.5,87.5 C 129.5,87.5 132.5,87.5 135.5,87.5C 135.5,96.1667 135.5,104.833 135.5,113.5C 132.5,113.5 129.5,113.5 126.5,113.5C 126.5,104.833 126.5,96.1667 126.5,87.5 Z"/></g>
<g><path style="opacity:1" fill="#524e4c" d="M 168.5,115.5 C 168.5,115.167 168.5,114.833 168.5,114.5C 179.833,114.5 191.167,114.5 202.5,114.5C 202.833,114.5 203.167,114.5 203.5,114.5C 203.5,114.833 203.5,115.167 203.5,115.5C 203.678,119.122 203.011,122.456 201.5,125.5C 201.5,122.167 201.5,118.833 201.5,115.5C 190.5,115.5 179.5,115.5 168.5,115.5 Z"/></g>
<g><path style="opacity:1" fill="#504c4a" d="M 124.5,114.5 C 124.5,114.833 124.5,115.167 124.5,115.5C 121.167,115.5 117.833,115.5 114.5,115.5C 114.5,127.5 114.5,139.5 114.5,151.5C 113.505,139.345 113.171,127.011 113.5,114.5C 117.167,114.5 120.833,114.5 124.5,114.5 Z"/></g>
<g><path style="opacity:1" fill="#010200" d="M 124.5,115.5 C 124.5,127.5 124.5,139.5 124.5,151.5C 121.167,151.5 117.833,151.5 114.5,151.5C 114.5,139.5 114.5,127.5 114.5,115.5C 117.833,115.5 121.167,115.5 124.5,115.5 Z"/></g>
<g><path style="opacity:1" fill="#070705" d="M 168.5,115.5 C 179.5,115.5 190.5,115.5 201.5,115.5C 201.5,118.833 201.5,122.167 201.5,125.5C 199.167,125.5 196.833,125.5 194.5,125.5C 194.5,129.167 194.5,132.833 194.5,136.5C 188.833,136.5 183.167,136.5 177.5,136.5C 177.813,132.958 177.479,129.625 176.5,126.5C 174.052,125.527 171.385,125.194 168.5,125.5C 168.5,122.167 168.5,118.833 168.5,115.5 Z"/></g>
<g><path style="opacity:1" fill="#5a5452" d="M 255.5,114.5 C 256.5,114.5 257.5,114.5 258.5,114.5C 258.5,126.833 258.5,139.167 258.5,151.5C 257.5,151.5 256.5,151.5 255.5,151.5C 252.833,151.5 250.167,151.5 247.5,151.5C 247.5,139.167 247.5,126.833 247.5,114.5C 250.167,114.5 252.833,114.5 255.5,114.5 Z"/></g>
<g><path style="opacity:1" fill="#040301" d="M 248.5,115.5 C 251.5,115.5 254.5,115.5 257.5,115.5C 257.5,127.167 257.5,138.833 257.5,150.5C 254.5,150.5 251.5,150.5 248.5,150.5C 248.5,138.833 248.5,127.167 248.5,115.5 Z"/></g>
<g><path style="opacity:1" fill="#706b69" d="M 201.5,125.5 C 199.735,126.461 197.735,126.795 195.5,126.5C 195.5,130.167 195.5,133.833 195.5,137.5C 189.167,137.5 182.833,137.5 176.5,137.5C 176.5,133.833 176.5,130.167 176.5,126.5C 177.479,129.625 177.813,132.958 177.5,136.5C 183.167,136.5 188.833,136.5 194.5,136.5C 194.5,132.833 194.5,129.167 194.5,125.5C 196.833,125.5 199.167,125.5 201.5,125.5 Z"/></g>
<g><path style="opacity:1" fill="#d7ad95" d="M 155.5,140.5 C 159.5,140.5 163.5,140.5 167.5,140.5C 167.5,144.167 167.5,147.833 167.5,151.5C 163.5,151.5 159.5,151.5 155.5,151.5C 155.5,147.833 155.5,144.167 155.5,140.5 Z"/></g>
<g><path style="opacity:1" fill="#ddc1b3" d="M 203.5,139.5 C 203.5,143.5 203.5,147.5 203.5,151.5C 207.167,151.5 210.833,151.5 214.5,151.5C 214.5,147.5 214.5,143.5 214.5,139.5C 215.485,143.634 215.818,147.968 215.5,152.5C 211.167,152.5 206.833,152.5 202.5,152.5C 202.182,147.968 202.515,143.634 203.5,139.5 Z"/></g>
<g><path style="opacity:1" fill="#d8ae93" d="M 203.5,139.5 C 207.167,139.5 210.833,139.5 214.5,139.5C 214.5,143.5 214.5,147.5 214.5,151.5C 210.833,151.5 207.167,151.5 203.5,151.5C 203.5,147.5 203.5,143.5 203.5,139.5 Z"/></g>
<g><path style="opacity:1" fill="#71706d" d="M 131.5,152.5 C 133.099,152.232 134.432,152.566 135.5,153.5C 132.5,153.5 129.5,153.5 126.5,153.5C 126.5,156.167 126.5,158.833 126.5,161.5C 128.415,161.216 130.081,161.549 131.5,162.5C 129.5,162.5 127.5,162.5 125.5,162.5C 125.5,159.167 125.5,155.833 125.5,152.5C 127.5,152.5 129.5,152.5 131.5,152.5 Z"/></g>
<g><path style="opacity:1" fill="#2c3230" d="M 135.5,153.5 C 135.5,156.167 135.5,158.833 135.5,161.5C 135.5,162.167 135.167,162.5 134.5,162.5C 133.5,162.5 132.5,162.5 131.5,162.5C 130.081,161.549 128.415,161.216 126.5,161.5C 126.5,158.833 126.5,156.167 126.5,153.5C 129.5,153.5 132.5,153.5 135.5,153.5 Z"/></g>
<g><path style="opacity:1" fill="#9e9895" d="M 245.5,151.5 C 245.833,151.5 246.167,151.5 246.5,151.5C 246.833,151.5 247.167,151.5 247.5,151.5C 250.167,151.5 252.833,151.5 255.5,151.5C 253.052,152.473 250.385,152.806 247.5,152.5C 247.5,155.833 247.5,159.167 247.5,162.5C 243.5,162.5 239.5,162.5 235.5,162.5C 235.5,166.5 235.5,170.5 235.5,174.5C 224.167,174.5 212.833,174.5 201.5,174.5C 201.5,174.167 201.5,173.833 201.5,173.5C 212.5,173.5 223.5,173.5 234.5,173.5C 234.5,169.5 234.5,165.5 234.5,161.5C 201.5,161.5 168.5,161.5 135.5,161.5C 135.5,158.833 135.5,156.167 135.5,153.5C 136.468,155.607 136.802,157.941 136.5,160.5C 168.833,160.5 201.167,160.5 233.5,160.5C 233.5,157.5 233.5,154.5 233.5,151.5C 237.5,151.5 241.5,151.5 245.5,151.5 Z"/></g>
<g><path style="opacity:1" fill="#302d2c" d="M 234.5,161.5 C 234.5,158.5 234.5,155.5 234.5,152.5C 238.5,152.5 242.5,152.5 246.5,152.5C 246.5,155.5 246.5,158.5 246.5,161.5C 242.5,161.5 238.5,161.5 234.5,161.5 Z"/></g>
<g><path style="opacity:1" fill="#000000" d="M 235.5,153.5 C 238.833,153.5 242.167,153.5 245.5,153.5C 245.5,155.833 245.5,158.167 245.5,160.5C 242.167,160.5 238.833,160.5 235.5,160.5C 235.5,158.167 235.5,155.833 235.5,153.5 Z"/></g>
<g><path style="opacity:1" fill="#4d4a49" d="M 135.5,161.5 C 168.5,161.5 201.5,161.5 234.5,161.5C 234.5,165.5 234.5,169.5 234.5,173.5C 223.5,173.5 212.5,173.5 201.5,173.5C 179.5,173.5 157.5,173.5 135.5,173.5C 135.813,169.958 135.479,166.625 134.5,163.5C 134.5,163.167 134.5,162.833 134.5,162.5C 135.167,162.5 135.5,162.167 135.5,161.5 Z"/></g>
<g><path style="opacity:1" fill="#afa8a5" d="M 126.5,115.5 C 126.5,127.5 126.5,139.5 126.5,151.5C 128.415,151.216 130.081,151.549 131.5,152.5C 129.5,152.5 127.5,152.5 125.5,152.5C 125.5,155.833 125.5,159.167 125.5,162.5C 127.5,162.5 129.5,162.5 131.5,162.5C 132.5,162.5 133.5,162.5 134.5,162.5C 134.5,162.833 134.5,163.167 134.5,163.5C 131.167,163.5 127.833,163.5 124.5,163.5C 124.5,160.167 124.5,156.833 124.5,153.5C 121.615,153.806 118.948,153.473 116.5,152.5C 119.385,152.806 122.052,152.473 124.5,151.5C 125.167,139.5 125.833,127.5 126.5,115.5 Z"/></g>
<g><path style="opacity:1" fill="#010201" d="M 136.5,162.5 C 168.833,162.5 201.167,162.5 233.5,162.5C 233.5,165.833 233.5,169.167 233.5,172.5C 201.167,172.5 168.833,172.5 136.5,172.5C 136.5,169.167 136.5,165.833 136.5,162.5 Z"/></g>
<g><path style="opacity:1" fill="#81807e" d="M 134.5,163.5 C 135.479,166.625 135.813,169.958 135.5,173.5C 157.5,173.5 179.5,173.5 201.5,173.5C 201.5,173.833 201.5,174.167 201.5,174.5C 179.167,174.5 156.833,174.5 134.5,174.5C 134.5,170.833 134.5,167.167 134.5,163.5 Z"/></g>
</svg>
