<?xml version="1.0" encoding="UTF-8"?>
<!DOCTYPE svg PUBLIC "-//W3C//DTD SVG 1.1//EN" "http://www.w3.org/Graphics/SVG/1.1/DTD/svg11.dtd">
<svg xmlns="http://www.w3.org/2000/svg" version="1.1" width="369px" height="177px" style="shape-rendering:geometricPrecision; text-rendering:geometricPrecision; image-rendering:optimizeQuality; fill-rule:evenodd; clip-rule:evenodd" xmlns:xlink="http://www.w3.org/1999/xlink">
<g><path style="opacity:1" fill="#e0d7d4" d="M -0.5,-0.5 C 122.5,-0.5 245.5,-0.5 368.5,-0.5C 368.5,58.5 368.5,117.5 368.5,176.5C 245.5,176.5 122.5,176.5 -0.5,176.5C -0.5,117.5 -0.5,58.5 -0.5,-0.5 Z"/></g>
<g><path style="opacity:1" fill="#3a352f" d="M 216.5,2.5 C 216.5,6.16667 216.5,9.83333 216.5,13.5C 226.5,13.5 236.5,13.5 246.5,13.5C 246.5,9.83333 246.5,6.16667 246.5,2.5C 246.833,2.5 247.167,2.5 247.5,2.5C 247.5,6.5 247.5,10.5 247.5,14.5C 240.167,14.5 232.833,14.5 225.5,14.5C 222.167,14.5 218.833,14.5 215.5,14.5C 215.183,10.2984 215.517,6.29841 216.5,2.5 Z"/></g>
<g><path style="opacity:1" fill="#030200" d="M 216.5,2.5 C 226.5,2.5 236.5,2.5 246.5,2.5C 246.5,6.16667 246.5,9.83333 246.5,13.5C 236.5,13.5 226.5,13.5 216.5,13.5C 216.5,9.83333 216.5,6.16667 216.5,2.5 Z"/></g>
<g><path style="opacity:1" fill="#72655b" d="M 167.5,37.5 C 167.5,33.8333 167.5,30.1667 167.5,26.5C 163.833,26.5 160.167,26.5 156.5,26.5C 156.5,30.1667 156.5,33.8333 156.5,37.5C 156.167,37.5 155.833,37.5 155.5,37.5C 155.5,29.8333 155.5,22.1667 155.5,14.5C 155.5,10.5 155.5,6.5 155.5,2.5C 145.833,2.5 136.167,2.5 126.5,2.5C 126.5,6.5 126.5,10.5 126.5,14.5C 126.817,18.7016 126.483,22.7016 125.5,26.5C 125.5,22.5 125.5,18.5 125.5,14.5C 125.5,10.1667 125.5,5.83333 125.5,1.5C 135.833,1.5 146.167,1.5 156.5,1.5C 156.5,5.83333 156.5,10.1667 156.5,14.5C 160.5,14.5 164.5,14.5 168.5,14.5C 168.825,22.3516 168.492,30.0182 167.5,37.5 Z"/></g>
<g><path style="opacity:1" fill="#090705" d="M 155.5,14.5 C 152.5,14.5 149.5,14.5 146.5,14.5C 139.833,14.5 133.167,14.5 126.5,14.5C 126.5,10.5 126.5,6.5 126.5,2.5C 136.167,2.5 145.833,2.5 155.5,2.5C 155.5,6.5 155.5,10.5 155.5,14.5 Z"/></g>
<g><path style="opacity:1" fill="#6c5e55" d="M 215.5,14.5 C 216.748,22.3083 216.748,29.975 215.5,37.5C 215.5,37.8333 215.5,38.1667 215.5,38.5C 211.5,38.5 207.5,38.5 203.5,38.5C 203.5,30.5 203.5,22.5 203.5,14.5C 207.5,14.5 211.5,14.5 215.5,14.5 Z"/></g>
<g><path style="opacity:1" fill="#d9a98b" d="M 225.5,14.5 C 232.833,14.5 240.167,14.5 247.5,14.5C 247.5,18.5 247.5,22.5 247.5,26.5C 251.167,26.5 254.833,26.5 258.5,26.5C 259.167,30.5 259.833,34.5 260.5,38.5C 263.5,38.5 266.5,38.5 269.5,38.5C 269.5,34.5 269.5,30.5 269.5,26.5C 269.5,26.1667 269.5,25.8333 269.5,25.5C 273.167,25.5 276.833,25.5 280.5,25.5C 280.5,29.5 280.5,33.5 280.5,37.5C 280.5,37.8333 280.5,38.1667 280.5,38.5C 279.508,46.3159 279.174,54.3159 279.5,62.5C 275.958,62.1872 272.625,62.5206 269.5,63.5C 268.518,66.9619 268.185,70.6286 268.5,74.5C 261.167,74.5 253.833,74.5 246.5,74.5C 246.5,70.8333 246.5,67.1667 246.5,63.5C 243.167,63.5 239.833,63.5 236.5,63.5C 236.167,63.5 235.833,63.5 235.5,63.5C 235.5,58.1667 235.5,52.8333 235.5,47.5C 233.5,47.5 231.5,47.5 229.5,47.5C 227.901,47.7678 226.568,47.4345 225.5,46.5C 225.5,36.1667 225.5,25.8333 225.5,15.5C 225.5,15.1667 225.5,14.8333 225.5,14.5 Z"/></g>
<g><path style="opacity:1" fill="#0d0805" d="M 247.5,14.5 C 251.167,14.5 254.833,14.5 258.5,14.5C 258.5,18.5 258.5,22.5 258.5,26.5C 254.833,26.5 251.167,26.5 247.5,26.5C 247.5,22.5 247.5,18.5 247.5,14.5 Z"/></g>
<g><path style="opacity:1" fill="#daa98b" d="M 126.5,14.5 C 133.167,14.5 139.833,14.5 146.5,14.5C 146.667,25.1719 146.5,35.8385 146,46.5C 142.943,47.4505 139.777,47.7839 136.5,47.5C 136.827,56.6822 136.493,65.6822 135.5,74.5C 135.5,70.8333 135.5,67.1667 135.5,63.5C 132.167,63.5 128.833,63.5 125.5,63.5C 125.5,67.1667 125.5,70.8333 125.5,74.5C 117.833,74.5 110.167,74.5 102.5,74.5C 102.5,70.5 102.5,66.5 102.5,62.5C 99.1667,62.5 95.8333,62.5 92.5,62.5C 92.8261,53.9832 92.4927,45.6499 91.5,37.5C 91.3347,33.8183 91.5014,30.1516 92,26.5C 95.3936,25.5442 98.8936,25.2108 102.5,25.5C 102.5,25.8333 102.5,26.1667 102.5,26.5C 102.5,30.8333 102.5,35.1667 102.5,39.5C 106.167,39.5 109.833,39.5 113.5,39.5C 114.483,35.7016 114.817,31.7016 114.5,27.5C 118.371,27.815 122.038,27.4816 125.5,26.5C 126.483,22.7016 126.817,18.7016 126.5,14.5 Z"/></g>
<g><path style="opacity:1" fill="#93857d" d="M 112.5,14.5 C 112.5,18.5 112.5,22.5 112.5,26.5C 109.167,26.5 105.833,26.5 102.5,26.5C 102.5,26.1667 102.5,25.8333 102.5,25.5C 105.5,25.5 108.5,25.5 111.5,25.5C 111.185,21.6286 111.518,17.9619 112.5,14.5 Z"/></g>
<g><path style="opacity:1" fill="#988981" d="M 247.5,2.5 C 248.482,5.96192 248.815,9.62859 248.5,13.5C 252.167,13.5 255.833,13.5 259.5,13.5C 259.5,17.5 259.5,21.5 259.5,25.5C 262.833,25.5 266.167,25.5 269.5,25.5C 269.5,25.8333 269.5,26.1667 269.5,26.5C 266.5,26.5 263.5,26.5 260.5,26.5C 260.5,30.5 260.5,34.5 260.5,38.5C 259.833,34.5 259.167,30.5 258.5,26.5C 258.5,22.5 258.5,18.5 258.5,14.5C 254.833,14.5 251.167,14.5 247.5,14.5C 247.5,10.5 247.5,6.5 247.5,2.5 Z"/></g>
<g><path style="opacity:1" fill="#060303" d="M 112.5,14.5 C 116.833,14.5 121.167,14.5 125.5,14.5C 125.5,18.5 125.5,22.5 125.5,26.5C 121.5,26.5 117.5,26.5 113.5,26.5C 113.5,30.8333 113.5,35.1667 113.5,39.5C 109.833,39.5 106.167,39.5 102.5,39.5C 102.5,35.1667 102.5,30.8333 102.5,26.5C 105.833,26.5 109.167,26.5 112.5,26.5C 112.5,22.5 112.5,18.5 112.5,14.5 Z"/></g>
<g><path style="opacity:1" fill="#030201" d="M 167.5,37.5 C 163.833,37.5 160.167,37.5 156.5,37.5C 156.5,33.8333 156.5,30.1667 156.5,26.5C 160.167,26.5 163.833,26.5 167.5,26.5C 167.5,30.1667 167.5,33.8333 167.5,37.5 Z"/></g>
<g><path style="opacity:1" fill="#010000" d="M 215.5,37.5 C 211.833,37.5 208.167,37.5 204.5,37.5C 204.5,33.8333 204.5,30.1667 204.5,26.5C 208.167,26.5 211.833,26.5 215.5,26.5C 215.5,30.1667 215.5,33.8333 215.5,37.5 Z"/></g>
<g><path style="opacity:1" fill="#a77b89" d="M 225.5,15.5 C 225.5,25.8333 225.5,36.1667 225.5,46.5C 223.331,45.9182 220.998,45.9182 218.5,46.5C 217.786,36.404 217.453,26.0707 217.5,15.5C 220.167,15.5 222.833,15.5 225.5,15.5 Z"/></g>
<g><path style="opacity:1" fill="#050102" d="M 269.5,26.5 C 269.5,30.5 269.5,34.5 269.5,38.5C 266.5,38.5 263.5,38.5 260.5,38.5C 260.5,34.5 260.5,30.5 260.5,26.5C 263.5,26.5 266.5,26.5 269.5,26.5 Z"/></g>
<g><path style="opacity:1" fill="#927360" d="M 125.5,26.5 C 122.038,27.4816 118.371,27.815 114.5,27.5C 114.817,31.7016 114.483,35.7016 113.5,39.5C 113.5,35.1667 113.5,30.8333 113.5,26.5C 117.5,26.5 121.5,26.5 125.5,26.5 Z"/></g>
<g><path style="opacity:1" fill="#5a483f" d="M 91.5,37.5 C 92.4927,45.6499 92.8261,53.9832 92.5,62.5C 95.8333,62.5 99.1667,62.5 102.5,62.5C 102.5,66.5 102.5,70.5 102.5,74.5C 102.167,74.5 101.833,74.5 101.5,74.5C 101.5,70.8333 101.5,67.1667 101.5,63.5C 98.1667,63.5 94.8333,63.5 91.5,63.5C 91.5,55.1667 91.5,46.8333 91.5,38.5C 87.8333,38.5 84.1667,38.5 80.5,38.5C 80.5,50.5 80.5,62.5 80.5,74.5C 79.5048,62.3446 79.1714,50.0113 79.5,37.5C 83.5,37.5 87.5,37.5 91.5,37.5 Z"/></g>
<g><path style="opacity:1" fill="#030201" d="M 101.5,74.5 C 94.5,74.5 87.5,74.5 80.5,74.5C 80.5,62.5 80.5,50.5 80.5,38.5C 84.1667,38.5 87.8333,38.5 91.5,38.5C 91.5,46.8333 91.5,55.1667 91.5,63.5C 94.8333,63.5 98.1667,63.5 101.5,63.5C 101.5,67.1667 101.5,70.8333 101.5,74.5 Z"/></g>
<g><path style="opacity:1" fill="#030201" d="M 280.5,38.5 C 283.833,38.5 287.167,38.5 290.5,38.5C 290.5,50.5 290.5,62.5 290.5,74.5C 283.5,74.5 276.5,74.5 269.5,74.5C 269.5,70.8333 269.5,67.1667 269.5,63.5C 273.167,63.5 276.833,63.5 280.5,63.5C 280.5,55.1667 280.5,46.8333 280.5,38.5 Z"/></g>
<g><path style="opacity:1" fill="#a57b89" d="M 146.5,14.5 C 149.5,14.5 152.5,14.5 155.5,14.5C 155.5,22.1667 155.5,29.8333 155.5,37.5C 155.5,40.8333 155.5,44.1667 155.5,47.5C 152.5,47.5 149.5,47.5 146.5,47.5C 146.5,60.1667 146.5,72.8333 146.5,85.5C 143.287,85.19 140.287,85.5233 137.5,86.5C 133.833,86.5 130.167,86.5 126.5,86.5C 126.167,86.5 125.833,86.5 125.5,86.5C 121.167,86.5 116.833,86.5 112.5,86.5C 112.5,86.1667 112.5,85.8333 112.5,85.5C 112.5,82.1667 112.5,78.8333 112.5,75.5C 109.5,75.5 106.5,75.5 103.5,75.5C 103.167,75.5 102.833,75.5 102.5,75.5C 102.5,75.1667 102.5,74.8333 102.5,74.5C 110.167,74.5 117.833,74.5 125.5,74.5C 128.833,74.5 132.167,74.5 135.5,74.5C 136.493,65.6822 136.827,56.6822 136.5,47.5C 139.777,47.7839 142.943,47.4505 146,46.5C 146.5,35.8385 146.667,25.1719 146.5,14.5 Z"/></g>
<g><path style="opacity:1" fill="#a67b89" d="M 229.5,47.5 C 231.5,47.5 233.5,47.5 235.5,47.5C 235.5,52.8333 235.5,58.1667 235.5,63.5C 235.5,67.5 235.5,71.5 235.5,75.5C 243.167,75.5 250.833,75.5 258.5,75.5C 257.674,79.1359 257.008,82.8026 256.5,86.5C 247.329,86.539 237.995,86.3723 228.5,86C 228,85.5 227.5,85 227,84.5C 226.5,72.5046 226.333,60.5046 226.5,48.5C 227.791,48.7373 228.791,48.404 229.5,47.5 Z"/></g>
<g><path style="opacity:1" fill="#5f4637" d="M 280.5,38.5 C 280.5,46.8333 280.5,55.1667 280.5,63.5C 276.833,63.5 273.167,63.5 269.5,63.5C 272.625,62.5206 275.958,62.1872 279.5,62.5C 279.174,54.3159 279.508,46.3159 280.5,38.5 Z"/></g>
<g><path style="opacity:1" fill="#e4d5d1" d="M 135.5,74.5 C 132.167,74.5 128.833,74.5 125.5,74.5C 125.5,70.8333 125.5,67.1667 125.5,63.5C 128.833,63.5 132.167,63.5 135.5,63.5C 135.5,67.1667 135.5,70.8333 135.5,74.5 Z"/></g>
<g><path style="opacity:1" fill="#9e7f87" d="M 215.5,14.5 C 218.833,14.5 222.167,14.5 225.5,14.5C 225.5,14.8333 225.5,15.1667 225.5,15.5C 222.833,15.5 220.167,15.5 217.5,15.5C 217.453,26.0707 217.786,36.404 218.5,46.5C 220.998,45.9182 223.331,45.9182 225.5,46.5C 226.568,47.4345 227.901,47.7678 229.5,47.5C 228.791,48.404 227.791,48.7373 226.5,48.5C 226.333,60.5046 226.5,72.5046 227,84.5C 227.5,85 228,85.5 228.5,86C 237.995,86.3723 247.329,86.539 256.5,86.5C 257.008,82.8026 257.674,79.1359 258.5,75.5C 258.833,75.5 259.167,75.5 259.5,75.5C 259.5,79.1667 259.5,82.8333 259.5,86.5C 263.167,86.5 266.833,86.5 270.5,86.5C 263.018,87.492 255.352,87.8254 247.5,87.5C 243.167,87.5 238.833,87.5 234.5,87.5C 234.167,87.5 233.833,87.5 233.5,87.5C 230.5,87.5 227.5,87.5 224.5,87.5C 224.5,74.1667 224.5,60.8333 224.5,47.5C 221.833,47.5 219.167,47.5 216.5,47.5C 216.81,44.2869 216.477,41.2869 215.5,38.5C 215.5,38.1667 215.5,37.8333 215.5,37.5C 216.748,29.975 216.748,22.3083 215.5,14.5 Z"/></g>
<g><path style="opacity:1" fill="#b8948c" d="M 235.5,63.5 C 235.833,63.5 236.167,63.5 236.5,63.5C 236.5,67.1667 236.5,70.8333 236.5,74.5C 239.833,74.5 243.167,74.5 246.5,74.5C 253.833,74.5 261.167,74.5 268.5,74.5C 268.185,70.6286 268.518,66.9619 269.5,63.5C 269.5,67.1667 269.5,70.8333 269.5,74.5C 266.375,75.4794 263.042,75.8128 259.5,75.5C 259.167,75.5 258.833,75.5 258.5,75.5C 250.833,75.5 243.167,75.5 235.5,75.5C 235.5,71.5 235.5,67.5 235.5,63.5 Z"/></g>
<g><path style="opacity:1" fill="#e3d7d1" d="M 236.5,63.5 C 239.833,63.5 243.167,63.5 246.5,63.5C 246.5,67.1667 246.5,70.8333 246.5,74.5C 243.167,74.5 239.833,74.5 236.5,74.5C 236.5,70.8333 236.5,67.1667 236.5,63.5 Z"/></g>
<g><path style="opacity:1" fill="#c5bab7" d="M 280.5,38.5 C 280.5,38.1667 280.5,37.8333 280.5,37.5C 284.5,37.5 288.5,37.5 292.5,37.5C 292.5,50.5 292.5,63.5 292.5,76.5C 285.5,76.5 278.5,76.5 271.5,76.5C 271.813,80.0419 271.479,83.3752 270.5,86.5C 270.5,82.8333 270.5,79.1667 270.5,75.5C 277.5,75.5 284.5,75.5 291.5,75.5C 291.829,62.9887 291.495,50.6554 290.5,38.5C 287.167,38.5 283.833,38.5 280.5,38.5 Z"/></g>
<g><path style="opacity:1" fill="#060101" d="M 103.5,75.5 C 106.5,75.5 109.5,75.5 112.5,75.5C 112.5,78.8333 112.5,82.1667 112.5,85.5C 109.5,85.5 106.5,85.5 103.5,85.5C 103.5,82.1667 103.5,78.8333 103.5,75.5 Z"/></g>
<g><path style="opacity:1" fill="#4f4142" d="M 102.5,75.5 C 102.833,75.5 103.167,75.5 103.5,75.5C 103.5,78.8333 103.5,82.1667 103.5,85.5C 106.5,85.5 109.5,85.5 112.5,85.5C 112.5,85.8333 112.5,86.1667 112.5,86.5C 109.167,86.5 105.833,86.5 102.5,86.5C 102.5,82.8333 102.5,79.1667 102.5,75.5 Z"/></g>
<g><path style="opacity:1" fill="#322b28" d="M 290.5,38.5 C 291.495,50.6554 291.829,62.9887 291.5,75.5C 284.5,75.5 277.5,75.5 270.5,75.5C 270.5,79.1667 270.5,82.8333 270.5,86.5C 266.833,86.5 263.167,86.5 259.5,86.5C 259.5,82.8333 259.5,79.1667 259.5,75.5C 263.042,75.8128 266.375,75.4794 269.5,74.5C 276.5,74.5 283.5,74.5 290.5,74.5C 290.5,62.5 290.5,50.5 290.5,38.5 Z"/></g>
<g><path style="opacity:1" fill="#020100" d="M 126.5,87.5 C 129.833,87.5 133.167,87.5 136.5,87.5C 136.5,96.5 136.5,105.5 136.5,114.5C 133.167,114.5 129.833,114.5 126.5,114.5C 126.5,105.5 126.5,96.5 126.5,87.5 Z"/></g>
<g><path style="opacity:1" fill="#040402" d="M 203.5,87.5 C 207.5,87.5 211.5,87.5 215.5,87.5C 215.5,96.5 215.5,105.5 215.5,114.5C 211.5,114.5 207.5,114.5 203.5,114.5C 203.5,114.167 203.5,113.833 203.5,113.5C 203.5,104.833 203.5,96.1667 203.5,87.5 Z"/></g>
<g><path style="opacity:1" fill="#5b5655" d="M 125.5,86.5 C 125.833,86.5 126.167,86.5 126.5,86.5C 126.5,86.8333 126.5,87.1667 126.5,87.5C 126.5,96.5 126.5,105.5 126.5,114.5C 129.833,114.5 133.167,114.5 136.5,114.5C 136.833,114.5 137.167,114.5 137.5,114.5C 134.038,115.482 130.371,115.815 126.5,115.5C 126.167,115.5 125.833,115.5 125.5,115.5C 121.833,115.5 118.167,115.5 114.5,115.5C 114.5,127.833 114.5,140.167 114.5,152.5C 114.167,152.5 113.833,152.5 113.5,152.5C 113.5,139.833 113.5,127.167 113.5,114.5C 117.5,114.5 121.5,114.5 125.5,114.5C 125.5,105.167 125.5,95.8333 125.5,86.5 Z"/></g>
<g><path style="opacity:1" fill="#2a2825" d="M 168.5,87.5 C 168.5,96.5 168.5,105.5 168.5,114.5C 164.5,114.5 160.5,114.5 156.5,114.5C 156.5,105.5 156.5,96.5 156.5,87.5C 160.5,87.5 164.5,87.5 168.5,87.5 Z"/></g>
<g><path style="opacity:1" fill="#0f0c0b" d="M 234.5,87.5 C 238.833,87.5 243.167,87.5 247.5,87.5C 247.5,96.5 247.5,105.5 247.5,114.5C 243.167,114.5 238.833,114.5 234.5,114.5C 234.5,105.5 234.5,96.5 234.5,87.5 Z"/></g>
<g><path style="opacity:1" fill="#433e3c" d="M 203.5,87.5 C 207.634,86.5151 211.968,86.1818 216.5,86.5C 216.5,96.1667 216.5,105.833 216.5,115.5C 212.167,115.5 207.833,115.5 203.5,115.5C 203.815,119.371 203.482,123.038 202.5,126.5C 202.5,122.833 202.5,119.167 202.5,115.5C 191.167,115.5 179.833,115.5 168.5,115.5C 168.5,115.167 168.5,114.833 168.5,114.5C 180.167,114.5 191.833,114.5 203.5,114.5C 207.5,114.5 211.5,114.5 215.5,114.5C 215.5,105.5 215.5,96.5 215.5,87.5C 211.5,87.5 207.5,87.5 203.5,87.5 Z"/></g>
<g><path style="opacity:1" fill="#5d5855" d="M 168.5,86.5 C 168.5,86.8333 168.5,87.1667 168.5,87.5C 164.5,87.5 160.5,87.5 156.5,87.5C 156.5,96.5 156.5,105.5 156.5,114.5C 160.5,114.5 164.5,114.5 168.5,114.5C 168.5,114.833 168.5,115.167 168.5,115.5C 168.5,119.167 168.5,122.833 168.5,126.5C 167.518,123.038 167.185,119.371 167.5,115.5C 163.5,115.5 159.5,115.5 155.5,115.5C 155.5,105.833 155.5,96.1667 155.5,86.5C 159.833,86.5 164.167,86.5 168.5,86.5 Z"/></g>
<g><path style="opacity:1" fill="#312b2a" d="M 126.5,87.5 C 126.5,87.1667 126.5,86.8333 126.5,86.5C 130.167,86.5 133.833,86.5 137.5,86.5C 137.5,95.8333 137.5,105.167 137.5,114.5C 137.167,114.5 136.833,114.5 136.5,114.5C 136.5,105.5 136.5,96.5 136.5,87.5C 133.167,87.5 129.833,87.5 126.5,87.5 Z"/></g>
<g><path style="opacity:1" fill="#b4afac" d="M 168.5,86.5 C 169.493,95.3178 169.827,104.318 169.5,113.5C 180.833,113.5 192.167,113.5 203.5,113.5C 203.5,113.833 203.5,114.167 203.5,114.5C 191.833,114.5 180.167,114.5 168.5,114.5C 168.5,105.5 168.5,96.5 168.5,87.5C 168.5,87.1667 168.5,86.8333 168.5,86.5 Z"/></g>
<g><path style="opacity:1" fill="#020200" d="M 125.5,115.5 C 125.5,127.833 125.5,140.167 125.5,152.5C 121.833,152.5 118.167,152.5 114.5,152.5C 114.5,140.167 114.5,127.833 114.5,115.5C 118.167,115.5 121.833,115.5 125.5,115.5 Z"/></g>
<g><path style="opacity:1" fill="#070705" d="M 168.5,115.5 C 179.833,115.5 191.167,115.5 202.5,115.5C 202.5,119.167 202.5,122.833 202.5,126.5C 200.167,126.5 197.833,126.5 195.5,126.5C 195.5,130.167 195.5,133.833 195.5,137.5C 189.5,137.5 183.5,137.5 177.5,137.5C 177.5,133.833 177.5,130.167 177.5,126.5C 174.5,126.5 171.5,126.5 168.5,126.5C 168.5,122.833 168.5,119.167 168.5,115.5 Z"/></g>
<g><path style="opacity:1" fill="#050302" d="M 258.5,115.5 C 258.5,127.5 258.5,139.5 258.5,151.5C 255.167,151.5 251.833,151.5 248.5,151.5C 248.5,139.5 248.5,127.5 248.5,115.5C 251.833,115.5 255.167,115.5 258.5,115.5 Z"/></g>
<g><path style="opacity:1" fill="#a19795" d="M 233.5,87.5 C 233.833,87.5 234.167,87.5 234.5,87.5C 234.5,96.5 234.5,105.5 234.5,114.5C 238.833,114.5 243.167,114.5 247.5,114.5C 247.5,127.167 247.5,139.833 247.5,152.5C 247.167,152.5 246.833,152.5 246.5,152.5C 246.5,140.167 246.5,127.833 246.5,115.5C 242.167,115.5 237.833,115.5 233.5,115.5C 233.5,106.167 233.5,96.8333 233.5,87.5 Z"/></g>
<g><path style="opacity:1" fill="#2c2724" d="M 247.5,114.5 C 251.371,114.185 255.038,114.518 258.5,115.5C 255.167,115.5 251.833,115.5 248.5,115.5C 248.5,127.5 248.5,139.5 248.5,151.5C 251.833,151.5 255.167,151.5 258.5,151.5C 255.038,152.482 251.371,152.815 247.5,152.5C 247.5,139.833 247.5,127.167 247.5,114.5 Z"/></g>
<g><path style="opacity:1" fill="#d7ad95" d="M 155.5,140.5 C 159.833,140.5 164.167,140.5 168.5,140.5C 168.793,144.437 168.46,148.27 167.5,152C 163.514,152.499 159.514,152.666 155.5,152.5C 155.5,148.5 155.5,144.5 155.5,140.5 Z"/></g>
<g><path style="opacity:1" fill="#d9ae94" d="M 203.5,139.5 C 207.5,139.5 211.5,139.5 215.5,139.5C 215.5,143.833 215.5,148.167 215.5,152.5C 211.5,152.5 207.5,152.5 203.5,152.5C 203.5,148.167 203.5,143.833 203.5,139.5 Z"/></g>
<g><path style="opacity:1" fill="#847f7c" d="M 125.5,115.5 C 125.833,115.5 126.167,115.5 126.5,115.5C 126.5,127.833 126.5,140.167 126.5,152.5C 130.042,152.187 133.375,152.521 136.5,153.5C 133.167,153.5 129.833,153.5 126.5,153.5C 126.5,156.5 126.5,159.5 126.5,162.5C 129.713,162.19 132.713,162.523 135.5,163.5C 132.167,163.5 128.833,163.5 125.5,163.5C 125.5,160.167 125.5,156.833 125.5,153.5C 121.298,153.817 117.298,153.483 113.5,152.5C 113.833,152.5 114.167,152.5 114.5,152.5C 118.167,152.5 121.833,152.5 125.5,152.5C 125.5,140.167 125.5,127.833 125.5,115.5 Z"/></g>
<g><path style="opacity:1" fill="#2c3230" d="M 136.5,153.5 C 136.5,156.167 136.5,158.833 136.5,161.5C 136.5,161.833 136.5,162.167 136.5,162.5C 136.5,166.167 136.5,169.833 136.5,173.5C 158.5,173.5 180.5,173.5 202.5,173.5C 202.5,173.833 202.5,174.167 202.5,174.5C 180.167,174.5 157.833,174.5 135.5,174.5C 135.5,170.833 135.5,167.167 135.5,163.5C 132.713,162.523 129.713,162.19 126.5,162.5C 126.5,159.5 126.5,156.5 126.5,153.5C 129.833,153.5 133.167,153.5 136.5,153.5 Z"/></g>
<g><path style="opacity:1" fill="#5c5755" d="M 246.5,152.5 C 246.833,152.5 247.167,152.5 247.5,152.5C 247.5,155.833 247.5,159.167 247.5,162.5C 243.5,162.5 239.5,162.5 235.5,162.5C 235.5,166.5 235.5,170.5 235.5,174.5C 224.5,174.5 213.5,174.5 202.5,174.5C 202.5,174.167 202.5,173.833 202.5,173.5C 213.167,173.5 223.833,173.5 234.5,173.5C 234.5,169.833 234.5,166.167 234.5,162.5C 201.833,162.5 169.167,162.5 136.5,162.5C 136.5,162.167 136.5,161.833 136.5,161.5C 169.167,161.5 201.833,161.5 234.5,161.5C 234.5,158.5 234.5,155.5 234.5,152.5C 238.5,152.5 242.5,152.5 246.5,152.5 Z"/></g>
<g><path style="opacity:1" fill="#010000" d="M 235.5,153.5 C 239.167,153.5 242.833,153.5 246.5,153.5C 246.5,156.167 246.5,158.833 246.5,161.5C 242.833,161.5 239.167,161.5 235.5,161.5C 235.5,158.833 235.5,156.167 235.5,153.5 Z"/></g>
<g><path style="opacity:1" fill="#020202" d="M 136.5,162.5 C 169.167,162.5 201.833,162.5 234.5,162.5C 234.5,166.167 234.5,169.833 234.5,173.5C 223.833,173.5 213.167,173.5 202.5,173.5C 180.5,173.5 158.5,173.5 136.5,173.5C 136.5,169.833 136.5,166.167 136.5,162.5 Z"/></g>
</svg>
